<?xml version="1.0" standalone="no"?><!DOCTYPE svg PUBLIC "-//W3C//DTD SVG 1.1//EN" "http://www.w3.org/Graphics/SVG/1.1/DTD/svg11.dtd"><svg t="1735902612157" class="icon" viewBox="0 0 1024 1024" version="1.1" xmlns="http://www.w3.org/2000/svg" p-id="2613" xmlns:xlink="http://www.w3.org/1999/xlink" width="200" height="200"><path d="M942.4896 90.2656c-75.264-3.6864-308.6336 136.8576-311.2448 312.9344-0.6144 42.4448 70.2464 220.16 112.64 220.16s35.2256-68.5056 76.8-76.8c45.4144-8.96 180.6848-171.3152 121.8048-456.2944z" fill="#F47C40" p-id="2614"></path><path d="M743.8848 648.96c-13.9264 0-27.2896-6.7072-40.96-20.48-45.6704-46.08-97.9456-183.2448-97.28-225.5872 1.4336-96.6656 63.0272-174.4896 114.432-222.72 71.68-67.328 170.1376-117.76 223.6928-115.4048a25.6 25.6 0 0 1 23.808 20.48c15.36 74.496 40.5504 263.8336-58.112 412.7744-27.2896 41.216-58.624 68.7616-83.7632 73.8304-7.1168 1.3824-12.032 10.7008-19.2512 25.6-9.7792 20.5312-24.576 51.5072-62.5664 51.5072zM921.6 118.1696c-38.5536 9.0112-106.5984 42.9568-166.656 99.328-80.0256 75.1104-97.5872 142.6432-98.2528 186.112 0 12.1344 11.6224 56.32 34.2528 107.008 27.1872 61.1328 47.6672 82.944 54.272 87.04 3.8912-0.9728 7.2704-6.1952 14.8992-22.2208 9.5744-19.968 22.6816-47.4112 55.3984-53.9136 11.7248-2.6112 51.9168-37.9904 81.92-110.1824 24.576-59.5456 47.872-157.696 24.1664-293.1712z" fill="#56240E" p-id="2615"></path><path d="M100.7104 80.0256c75.3152-3.6864 308.8896 136.8576 311.296 312.9344 0.6144 42.4448-70.2464 220.16-112.64 220.16s-35.2256-68.5056-76.8-76.8C177.152 527.36 41.8304 365.0048 100.7104 80.0256z" fill="#F47C40" p-id="2616"></path><path d="M299.3664 638.72c-37.9904 0-52.7872-30.72-62.6176-51.2-7.2192-15.36-12.0832-24.4224-19.2-25.6-25.1904-5.12-56.32-32.6144-83.7632-73.8304-32.8704-50.0736-104.3456-189.6448-58.112-413.2352a25.6 25.6 0 0 1 23.808-20.48c53.8112-2.56 151.9104 48.0256 223.6928 115.5072 51.2 48.2304 112.9472 126.0544 114.432 222.72 0.6144 42.3424-51.712 179.2-97.28 225.5872-13.6704 13.824-27.0848 20.5312-40.96 20.5312zM121.4464 107.9296c-23.5008 135.4752 0 233.6256 24.3712 293.12 29.8496 72.192 70.0416 107.52 81.92 110.1824 32.7168 6.5024 45.824 33.9456 55.3984 53.9136 7.6288 16.0256 11.008 21.248 14.8992 22.2208 6.5536-4.0448 27.0848-25.6 54.272-87.04 22.6304-51.2 34.4064-94.8736 34.2528-107.008-0.6656-43.4688-18.2272-111.0016-98.2528-186.112-60.2624-56.32-128.256-90.2656-166.8608-99.2768z" fill="#56240E" p-id="2617"></path><path d="M518.6048 547.2256m-384 0a384 384 0 1 0 768 0 384 384 0 1 0-768 0Z" fill="#F47C40" p-id="2618"></path><path d="M518.6048 956.8256a409.6 409.6 0 1 1 409.6-409.6 410.0608 410.0608 0 0 1-409.6 409.6z m0-768a358.4 358.4 0 1 0 358.4 358.4 358.8096 358.8096 0 0 0-358.4-358.4z" fill="#56240E" p-id="2619"></path><path d="M518.6048 931.2256a384.8704 384.8704 0 0 1-384-384c283.648 13.568 384 272.6912 384 384z" fill="#F9F4DF" p-id="2620"></path><path d="M518.6048 956.8256a410.0608 410.0608 0 0 1-409.6-409.6 25.6 25.6 0 0 1 7.936-18.5344 25.1904 25.1904 0 0 1 18.8928-7.0144c288.5632 13.7728 408.3712 273.5616 408.3712 409.6a25.6 25.6 0 0 1-25.6 25.5488zM161.28 575.0272a358.9632 358.9632 0 0 0 329.7792 329.5744c-13.4656-102.0928-99.7888-303.7184-329.7792-329.5744z" fill="#56240E" p-id="2621"></path><path d="M902.6048 547.2256a384.256 384.256 0 0 1-384 384c0-124.9792 112.64-381.1328 384-384z" fill="#F9F4DF" p-id="2622"></path><path d="M518.6048 956.8256a25.6 25.6 0 0 1-25.6-25.6c0-60.0576 25.0368-162.5088 95.5904-253.4912 54.528-70.2976 153.2416-154.4192 313.7536-156.1088a26.5728 26.5728 0 0 1 18.2784 7.424 25.6 25.6 0 0 1 7.5776 18.176 410.0608 410.0608 0 0 1-409.6 409.6z m357.4272-382.7712c-214.5792 17.152-316.6208 210.5344-330.24 330.5472a358.9632 358.9632 0 0 0 330.24-330.5472z" fill="#56240E" p-id="2623"></path><path d="M336.437525 456.642242a93.696 32.6656 60 1 0 56.578479-32.6656 93.696 32.6656 60 1 0-56.578479 32.6656Z" fill="#56240E" p-id="2624"></path><path d="M621.953188 515.498635a32.6656 93.696 30 1 0 93.696-162.286233 32.6656 93.696 30 1 0-93.696 162.286233Z" fill="#56240E" p-id="2625"></path><path d="M438.7328 929.024a79.872 58.4192 0 1 0 159.744 0 79.872 58.4192 0 1 0-159.744 0Z" fill="#56240E" p-id="2626"></path></svg>